<svg version="1.1" xmlns="http://www.w3.org/2000/svg" xmlns:xlink="http://www.w3.org/1999/xlink" width="714" height="383"><defs></defs><g><g transform="translate(5,5) scale(1,1)"><path fill="none" stroke="#000000" d="M 5 5 L 699 5 L 699 368 L 5 368 L 5 5" stroke-miterlimit="10"></path></g><g transform="translate(5,5) scale(1,1)"><path fill="#ffffff" stroke="none" d="M 5 5 L 5 27 L 207 27 L 218 16 L 218 5 L 5 5"></path></g><g transform="translate(5,5) scale(1,1)"><path fill="none" stroke="#000000" d="M 5 5 L 5 27 L 207 27 L 218 16 L 218 5 L 5 5 L 5 5" stroke-miterlimit="10"></path></g><g transform="translate(5,5) scale(1,1)"><g><path fill="none" stroke="none"></path><text fill="#000000" stroke="none" font-family="Arial" font-size="13px" font-style="normal" font-weight="normal" text-decoration="none" x="76" y="22.5">DeepinID SyncLogout</text></g></g><g transform="translate(5,5) scale(1,1)"><g><path fill="none" stroke="none"></path><text fill="#000000" stroke="none" font-family="Arial" font-size="13px" font-style="normal" font-weight="bold" text-decoration="none" x="10" y="22.5">interaction</text></g></g><g transform="translate(5,5) scale(1,1)"><rect fill="#C0C0C0" stroke="none" x="27" y="47" width="72" height="39" opacity="0.2"></rect></g><g transform="translate(5,5) scale(1,1)"><rect fill="#ffffff" stroke="none" x="20" y="40" width="72" height="39"></rect></g><g transform="translate(5,5) scale(1,1)"><path fill="none" stroke="#000000" d="M 20 40 L 92 40 L 92 79 L 20 79 L 20 40 Z Z" stroke-miterlimit="10"></path></g><g transform="translate(5,5) scale(1,1)"><g><path fill="none" stroke="none"></path><text fill="#000000" stroke="none" font-family="Arial" font-size="13px" font-style="normal" font-weight="bold" text-decoration="none" x="30" y="59.5">客户代理</text></g></g><g transform="translate(5,5) scale(1,1)"><path fill="none" stroke="#000000" d="M 57.5 80 L 57.5 348" stroke-miterlimit="10" stroke-dasharray="3"></path></g><g transform="translate(5,5) scale(1,1)"><rect fill="#C0C0C0" stroke="none" x="179" y="47" width="91" height="39" opacity="0.2"></rect></g><g transform="translate(5,5) scale(1,1)"><rect fill="#ffffff" stroke="none" x="172" y="40" width="91" height="39"></rect></g><g transform="translate(5,5) scale(1,1)"><path fill="none" stroke="#000000" d="M 172 40 L 263 40 L 263 79 L 172 79 L 172 40 Z Z" stroke-miterlimit="10"></path></g><g transform="translate(5,5) scale(1,1)"><g><path fill="none" stroke="none"></path><text fill="#000000" stroke="none" font-family="Arial" font-size="13px" font-style="normal" font-weight="bold" text-decoration="none" x="181.5" y="59.5">认证客户端1</text></g></g><g transform="translate(5,5) scale(1,1)"><path fill="none" stroke="#000000" d="M 218.5 80 L 218.5 344" stroke-miterlimit="10" stroke-dasharray="3"></path></g><g transform="translate(5,5) scale(1,1)"><rect fill="#C0C0C0" stroke="none" x="367" y="47" width="91" height="39" opacity="0.2"></rect></g><g transform="translate(5,5) scale(1,1)"><rect fill="#ffffff" stroke="none" x="360" y="40" width="91" height="39"></rect></g><g transform="translate(5,5) scale(1,1)"><path fill="none" stroke="#000000" d="M 360 40 L 451 40 L 451 79 L 360 79 L 360 40 Z Z" stroke-miterlimit="10"></path></g><g transform="translate(5,5) scale(1,1)"><g><path fill="none" stroke="none"></path><text fill="#000000" stroke="none" font-family="Arial" font-size="13px" font-style="normal" font-weight="bold" text-decoration="none" x="369.5" y="59.5">认证客户端2</text></g></g><g transform="translate(5,5) scale(1,1)"><path fill="none" stroke="#000000" d="M 406.5 80 L 406.5 336" stroke-miterlimit="10" stroke-dasharray="3"></path></g><g transform="translate(5,5) scale(1,1)"><rect fill="#C0C0C0" stroke="none" x="543" y="47" width="84" height="39" opacity="0.2"></rect></g><g transform="translate(5,5) scale(1,1)"><rect fill="#ffffff" stroke="none" x="536" y="40" width="84" height="39"></rect></g><g transform="translate(5,5) scale(1,1)"><path fill="none" stroke="#000000" d="M 536 40 L 620 40 L 620 79 L 536 79 L 536 40 Z Z" stroke-miterlimit="10"></path></g><g transform="translate(5,5) scale(1,1)"><g><path fill="none" stroke="none"></path><text fill="#000000" stroke="none" font-family="Arial" font-size="13px" font-style="normal" font-weight="bold" text-decoration="none" x="545.5" y="59.5">认证服务器</text></g></g><g transform="translate(5,5) scale(1,1)"><path fill="none" stroke="#000000" d="M 579.5 80 L 579.5 332" stroke-miterlimit="10" stroke-dasharray="3"></path></g><g transform="translate(5,5) scale(1,1)"><path fill="none" stroke="#000000" d="M 57 114 L 211 114" stroke-miterlimit="10"></path></g><g transform="translate(5,5) scale(1,1)"><path fill="#000000" stroke="none" d="M 200.83732514237585 118.20951775601598 L 211 114 L 200.83732514237585 109.79048224398402"></path></g><g transform="translate(5,5) scale(1,1)"><path fill="none" stroke="#000000" d="M 200.83732514237585 118.20951775601598 L 211 114 L 200.83732514237585 109.79048224398402 L 200.83732514237585 118.20951775601598" stroke-miterlimit="10"></path></g><g transform="translate(5,5) scale(1,1)"><g><path fill="none" stroke="none"></path><text fill="#000000" stroke="none" font-family="Arial" font-size="13px" font-style="normal" font-weight="normal" text-decoration="none" x="107" y="111">1 : logout</text></g></g><g transform="translate(5,5) scale(1,1)"><rect fill="#ffffff" stroke="none" x="211" y="114" width="13" height="28"></rect></g><g transform="translate(5,5) scale(1,1)"><path fill="none" stroke="#000000" d="M 211 114 L 224 114 L 224 142 L 211 142 L 211 114 Z Z" stroke-miterlimit="10"></path></g><g transform="translate(5,5) scale(1,1)"><path fill="none" stroke="#000000" d="M 211 140 L 57 140" stroke-miterlimit="10" stroke-dasharray="3"></path></g><g transform="translate(5,5) scale(1,1)"><path fill="none" stroke="#000000" d="M 67.16267485762415 135.790482243984 L 57 140 L 67.16267485762415 144.209517756016" stroke-miterlimit="10"></path></g><g transform="translate(5,5) scale(1,1)"><g><path fill="none" stroke="none"></path><text fill="#000000" stroke="none" font-family="Arial" font-size="13px" font-style="normal" font-weight="normal" text-decoration="none" x="71" y="157">2 : 302 to 认证服务器</text></g></g><g transform="translate(5,5) scale(1,1)"><path fill="none" stroke="#000000" d="M 57 184 L 572 184" stroke-miterlimit="10"></path></g><g transform="translate(5,5) scale(1,1)"><path fill="#000000" stroke="none" d="M 561.8373251423759 188.209517756016 L 572 184 L 561.8373251423758 179.790482243984"></path></g><g transform="translate(5,5) scale(1,1)"><path fill="none" stroke="#000000" d="M 561.8373251423759 188.209517756016 L 572 184 L 561.8373251423758 179.790482243984 L 561.8373251423759 188.209517756016" stroke-miterlimit="10"></path></g><g transform="translate(5,5) scale(1,1)"><g><path fill="none" stroke="none"></path><text fill="#000000" stroke="none" font-family="Arial" font-size="13px" font-style="normal" font-weight="normal" text-decoration="none" x="287" y="181">3 : logout</text></g></g><g transform="translate(5,5) scale(1,1)"><rect fill="#ffffff" stroke="none" x="572" y="184" width="13" height="28"></rect></g><g transform="translate(5,5) scale(1,1)"><path fill="none" stroke="#000000" d="M 572 184 L 585 184 L 585 212 L 572 212 L 572 184 Z Z" stroke-miterlimit="10"></path></g><g transform="translate(5,5) scale(1,1)"><path fill="none" stroke="#000000" d="M 572 209 L 57 209" stroke-miterlimit="10" stroke-dasharray="3"></path></g><g transform="translate(5,5) scale(1,1)"><path fill="none" stroke="#000000" d="M 67.16267485762415 204.790482243984 L 57 209 L 67.16267485762415 213.209517756016" stroke-miterlimit="10"></path></g><g transform="translate(5,5) scale(1,1)"><g><path fill="none" stroke="none"></path><text fill="#000000" stroke="none" font-family="Arial" font-size="13px" font-style="normal" font-weight="normal" text-decoration="none" x="217" y="226">4 : 授权认证通过，返回javascript</text></g></g><g transform="translate(5,5) scale(1,1)"><path fill="none" stroke="#000000" d="M 57 264 L 399 264" stroke-miterlimit="10"></path></g><g transform="translate(5,5) scale(1,1)"><path fill="#000000" stroke="none" d="M 388.83732514237585 268.209517756016 L 399 264 L 388.83732514237585 259.790482243984"></path></g><g transform="translate(5,5) scale(1,1)"><path fill="none" stroke="#000000" d="M 388.83732514237585 268.209517756016 L 399 264 L 388.83732514237585 259.790482243984 L 388.83732514237585 268.209517756016" stroke-miterlimit="10"></path></g><g transform="translate(5,5) scale(1,1)"><g><path fill="none" stroke="none"></path><text fill="#000000" stroke="none" font-family="Arial" font-size="13px" font-style="normal" font-weight="normal" text-decoration="none" x="201" y="261">5 : logout</text></g></g><g transform="translate(5,5) scale(1,1)"><rect fill="#ffffff" stroke="none" x="399" y="264" width="13" height="28"></rect></g><g transform="translate(5,5) scale(1,1)"><path fill="none" stroke="#000000" d="M 399 264 L 412 264 L 412 292 L 399 292 L 399 264 Z Z" stroke-miterlimit="10"></path></g><g transform="translate(5,5) scale(1,1)"><path fill="none" stroke="#000000" d="M 399 284 L 57 284" stroke-miterlimit="10" stroke-dasharray="3"></path></g><g transform="translate(5,5) scale(1,1)"><path fill="none" stroke="#000000" d="M 67.16267485762415 279.790482243984 L 57 284 L 67.16267485762415 288.209517756016" stroke-miterlimit="10"></path></g><g transform="translate(5,5) scale(1,1)"><g><path fill="none" stroke="none"></path><text fill="#000000" stroke="none" font-family="Arial" font-size="13px" font-style="normal" font-weight="normal" text-decoration="none" x="160" y="301">6 : 删除登录相关cookie</text></g></g></g></svg>